<svg xmlns="http://www.w3.org/2000/svg" xmlns:xlink="http://www.w3.org/1999/xlink" width="300" zoomAndPan="magnify" viewBox="0 0 224.87999 74.999997" height="100" preserveAspectRatio="xMidYMid meet" version="1.0"><defs><g/><clipPath id="768e6ed046"><path d="M 62.144531 24.949219 L 91.378906 24.949219 L 91.378906 49.6875 L 62.144531 49.6875 Z M 62.144531 24.949219 " clip-rule="nonzero"/></clipPath><clipPath id="d512444110"><path d="M 91.695312 36.101562 L 91.695312 35.515625 L 91.113281 35.449219 C 90.957031 35.433594 89.273438 35.265625 87.097656 35.59375 L 87.097656 31.3125 L 86.359375 31.40625 C 85.140625 31.566406 84.007812 31.800781 82.960938 32.101562 C 81.824219 29.6875 79.945312 27.410156 77.332031 25.292969 L 76.921875 24.960938 L 76.511719 25.292969 C 73.898438 27.410156 72.015625 29.6875 70.878906 32.101562 C 69.835938 31.800781 68.703125 31.566406 67.484375 31.40625 L 66.746094 31.3125 L 66.746094 35.59375 C 64.566406 35.265625 62.886719 35.433594 62.730469 35.449219 L 62.148438 35.515625 L 62.148438 36.101562 C 62.148438 40.914062 63.441406 44.578125 65.992188 46.992188 C 68.105469 48.992188 71.011719 50.03125 74.4375 50.03125 C 74.707031 50.03125 74.984375 50.023438 75.261719 50.011719 L 76.199219 50.011719 L 76.011719 49.207031 C 75.550781 47.199219 74.78125 42.34375 76.921875 38.386719 C 79.0625 42.34375 78.292969 47.199219 77.828125 49.207031 L 77.644531 50.011719 L 78.582031 50.011719 C 78.859375 50.023438 79.132812 50.03125 79.402344 50.03125 C 82.832031 50.03125 85.738281 48.992188 87.847656 46.992188 C 90.402344 44.578125 91.695312 40.914062 91.695312 36.101562 Z M 85.792969 32.8125 L 85.792969 35.84375 C 85.261719 35.964844 84.71875 36.117188 84.171875 36.3125 C 84.054688 35.296875 83.820312 34.296875 83.464844 33.316406 C 84.195312 33.113281 84.96875 32.941406 85.792969 32.8125 Z M 68.050781 32.8125 C 68.875 32.941406 69.648438 33.113281 70.375 33.316406 C 70.023438 34.296875 69.789062 35.296875 69.671875 36.3125 C 69.125 36.117188 68.582031 35.964844 68.050781 35.84375 Z M 66.890625 46.042969 C 64.714844 43.984375 63.5625 40.851562 63.460938 36.714844 C 64.140625 36.695312 65.34375 36.707031 66.746094 36.941406 L 66.746094 40.820312 C 66.746094 43.789062 69.683594 46.753906 72.582031 48.605469 C 70.667969 48.351562 68.589844 47.652344 66.890625 46.042969 Z M 68.050781 40.820312 L 68.050781 37.214844 C 68.558594 37.34375 69.074219 37.507812 69.589844 37.707031 C 69.566406 41.632812 71.261719 44.984375 72.75 47.160156 C 70.195312 45.390625 68.050781 42.894531 68.050781 40.820312 Z M 74.328125 47.097656 C 72.9375 45.230469 71.074219 42.046875 70.910156 38.3125 C 72.25 39.035156 73.507812 40.078125 74.460938 41.574219 C 74.089844 43.574219 74.144531 45.53125 74.328125 47.097656 Z M 74.875 39.902344 C 73.738281 38.484375 72.355469 37.507812 70.933594 36.832031 C 71.023438 35.777344 71.25 34.738281 71.621094 33.71875 C 73.613281 34.449219 75.183594 35.496094 76.324219 36.851562 C 75.671875 37.820312 75.203125 38.855469 74.875 39.902344 Z M 76.921875 35.558594 C 75.695312 34.257812 74.09375 33.242188 72.136719 32.515625 C 73.132812 30.457031 74.730469 28.496094 76.921875 26.648438 C 79.113281 28.496094 80.710938 30.457031 81.707031 32.515625 C 79.75 33.242188 78.148438 34.257812 76.921875 35.558594 Z M 77.519531 36.851562 C 78.65625 35.496094 80.230469 34.449219 82.21875 33.71875 C 82.59375 34.738281 82.820312 35.777344 82.90625 36.832031 C 81.488281 37.507812 80.105469 38.484375 78.96875 39.902344 C 78.640625 38.855469 78.171875 37.820312 77.519531 36.851562 Z M 79.382812 41.574219 C 80.332031 40.078125 81.59375 39.035156 82.933594 38.3125 C 82.769531 42.046875 80.902344 45.230469 79.515625 47.097656 C 79.695312 45.53125 79.75 43.574219 79.382812 41.574219 Z M 84.25 37.707031 C 84.769531 37.507812 85.285156 37.34375 85.792969 37.214844 L 85.792969 40.820312 C 85.792969 42.894531 83.648438 45.390625 81.09375 47.160156 C 82.582031 44.984375 84.277344 41.632812 84.25 37.707031 Z M 86.953125 46.042969 C 85.25 47.652344 83.175781 48.355469 81.261719 48.605469 C 84.160156 46.753906 87.097656 43.789062 87.097656 40.820312 L 87.097656 36.941406 C 88.5 36.707031 89.703125 36.695312 90.382812 36.714844 C 90.277344 40.851562 89.128906 43.984375 86.953125 46.042969 Z M 86.953125 46.042969 " clip-rule="nonzero"/></clipPath><linearGradient x1="3025" gradientTransform="matrix(0.0540034, 0, 0, 0.0540034, -86.438704, -109.381207)" y1="2487.629904" x2="3025" gradientUnits="userSpaceOnUse" y2="2945.526867" id="e4b78d9535"><stop stop-opacity="1" stop-color="rgb(30.599976%, 30.599976%, 30.999756%)" offset="0"/><stop stop-opacity="1" stop-color="rgb(30.599976%, 30.599976%, 30.999756%)" offset="0.125"/><stop stop-opacity="1" stop-color="rgb(30.599976%, 30.599976%, 30.999756%)" offset="0.15625"/><stop stop-opacity="1" stop-color="rgb(30.513%, 30.513%, 30.911255%)" offset="0.171875"/><stop stop-opacity="1" stop-color="rgb(30.305481%, 30.305481%, 30.702209%)" offset="0.1875"/><stop stop-opacity="1" stop-color="rgb(30.064392%, 30.064392%, 30.456543%)" offset="0.203125"/><stop stop-opacity="1" stop-color="rgb(29.823303%, 29.823303%, 30.212402%)" offset="0.21875"/><stop stop-opacity="1" stop-color="rgb(29.580688%, 29.580688%, 29.968262%)" offset="0.234375"/><stop stop-opacity="1" stop-color="rgb(29.3396%, 29.3396%, 29.722595%)" offset="0.25"/><stop stop-opacity="1" stop-color="rgb(29.098511%, 29.098511%, 29.478455%)" offset="0.265625"/><stop stop-opacity="1" stop-color="rgb(28.855896%, 28.855896%, 29.234314%)" offset="0.28125"/><stop stop-opacity="1" stop-color="rgb(28.614807%, 28.614807%, 28.988647%)" offset="0.296875"/><stop stop-opacity="1" stop-color="rgb(28.373718%, 28.373718%, 28.744507%)" offset="0.3125"/><stop stop-opacity="1" stop-color="rgb(28.132629%, 28.132629%, 28.49884%)" offset="0.328125"/><stop stop-opacity="1" stop-color="rgb(27.890015%, 27.890015%, 28.2547%)" offset="0.34375"/><stop stop-opacity="1" stop-color="rgb(27.648926%, 27.648926%, 28.010559%)" offset="0.359375"/><stop stop-opacity="1" stop-color="rgb(27.407837%, 27.407837%, 27.764893%)" offset="0.375"/><stop stop-opacity="1" stop-color="rgb(27.165222%, 27.165222%, 27.520752%)" offset="0.390625"/><stop stop-opacity="1" stop-color="rgb(26.924133%, 26.924133%, 27.276611%)" offset="0.40625"/><stop stop-opacity="1" stop-color="rgb(26.683044%, 26.683044%, 27.030945%)" offset="0.421875"/><stop stop-opacity="1" stop-color="rgb(26.44043%, 26.44043%, 26.786804%)" offset="0.4375"/><stop stop-opacity="1" stop-color="rgb(26.199341%, 26.199341%, 26.542664%)" offset="0.453125"/><stop stop-opacity="1" stop-color="rgb(25.958252%, 25.958252%, 26.296997%)" offset="0.46875"/><stop stop-opacity="1" stop-color="rgb(25.717163%, 25.717163%, 26.052856%)" offset="0.484375"/><stop stop-opacity="1" stop-color="rgb(25.474548%, 25.474548%, 25.80719%)" offset="0.5"/><stop stop-opacity="1" stop-color="rgb(25.233459%, 25.233459%, 25.563049%)" offset="0.515625"/><stop stop-opacity="1" stop-color="rgb(24.992371%, 24.992371%, 25.318909%)" offset="0.53125"/><stop stop-opacity="1" stop-color="rgb(24.749756%, 24.749756%, 25.073242%)" offset="0.546875"/><stop stop-opacity="1" stop-color="rgb(24.508667%, 24.508667%, 24.829102%)" offset="0.5625"/><stop stop-opacity="1" stop-color="rgb(24.267578%, 24.267578%, 24.584961%)" offset="0.578125"/><stop stop-opacity="1" stop-color="rgb(24.026489%, 24.026489%, 24.339294%)" offset="0.59375"/><stop stop-opacity="1" stop-color="rgb(23.783875%, 23.783875%, 24.095154%)" offset="0.609375"/><stop stop-opacity="1" stop-color="rgb(23.542786%, 23.542786%, 23.851013%)" offset="0.625"/><stop stop-opacity="1" stop-color="rgb(23.301697%, 23.301697%, 23.605347%)" offset="0.640625"/><stop stop-opacity="1" stop-color="rgb(23.059082%, 23.059082%, 23.361206%)" offset="0.65625"/><stop stop-opacity="1" stop-color="rgb(22.817993%, 22.817993%, 23.117065%)" offset="0.671875"/><stop stop-opacity="1" stop-color="rgb(22.576904%, 22.576904%, 22.871399%)" offset="0.6875"/><stop stop-opacity="1" stop-color="rgb(22.33429%, 22.33429%, 22.627258%)" offset="0.703125"/><stop stop-opacity="1" stop-color="rgb(22.093201%, 22.093201%, 22.381592%)" offset="0.71875"/><stop stop-opacity="1" stop-color="rgb(21.852112%, 21.852112%, 22.137451%)" offset="0.734375"/><stop stop-opacity="1" stop-color="rgb(21.611023%, 21.611023%, 21.893311%)" offset="0.75"/><stop stop-opacity="1" stop-color="rgb(21.368408%, 21.368408%, 21.647644%)" offset="0.765625"/><stop stop-opacity="1" stop-color="rgb(21.127319%, 21.127319%, 21.403503%)" offset="0.78125"/><stop stop-opacity="1" stop-color="rgb(20.88623%, 20.88623%, 21.159363%)" offset="0.796875"/><stop stop-opacity="1" stop-color="rgb(20.643616%, 20.643616%, 20.913696%)" offset="0.8125"/><stop stop-opacity="1" stop-color="rgb(20.402527%, 20.402527%, 20.669556%)" offset="0.828125"/><stop stop-opacity="1" stop-color="rgb(20.161438%, 20.161438%, 20.425415%)" offset="0.84375"/><stop stop-opacity="1" stop-color="rgb(19.920349%, 19.920349%, 20.179749%)" offset="0.859375"/><stop stop-opacity="1" stop-color="rgb(19.677734%, 19.677734%, 19.935608%)" offset="0.875"/><stop stop-opacity="1" stop-color="rgb(19.436646%, 19.436646%, 19.689941%)" offset="0.890625"/><stop stop-opacity="1" stop-color="rgb(19.195557%, 19.195557%, 19.445801%)" offset="0.90625"/><stop stop-opacity="1" stop-color="rgb(18.952942%, 18.952942%, 19.20166%)" offset="0.921875"/><stop stop-opacity="1" stop-color="rgb(18.711853%, 18.711853%, 18.955994%)" offset="0.9375"/><stop stop-opacity="1" stop-color="rgb(18.470764%, 18.470764%, 18.711853%)" offset="0.953125"/><stop stop-opacity="1" stop-color="rgb(18.228149%, 18.228149%, 18.467712%)" offset="0.96875"/><stop stop-opacity="1" stop-color="rgb(17.987061%, 17.987061%, 18.222046%)" offset="0.984375"/><stop stop-opacity="1" stop-color="rgb(17.745972%, 17.745972%, 17.977905%)" offset="1"/></linearGradient></defs><g clip-path="url(#768e6ed046)"><g clip-path="url(#d512444110)"><path fill="url(#e4b78d9535)" d="M 62.148438 24.960938 L 62.148438 49.6875 L 91.378906 49.6875 L 91.378906 24.960938 Z M 62.148438 24.960938 " fill-rule="nonzero"/></g></g><g fill="#000000" fill-opacity="1"><g transform="translate(98.732684, 33.551105)"><g><path d="M 4.078125 -5.6875 L 4.078125 -4.578125 L 2.640625 -4.578125 L 2.640625 0 L 1.390625 0 L 1.390625 -4.578125 L -0.046875 -4.578125 L -0.046875 -5.6875 Z M 4.078125 -5.6875 "/></g></g></g><g fill="#000000" fill-opacity="1"><g transform="translate(103.783167, 33.551105)"><g><path d="M 4.03125 -4.59375 L 1.859375 -4.59375 L 1.859375 -3.390625 L 3.71875 -3.390625 L 3.71875 -2.296875 L 1.859375 -2.296875 L 1.859375 -1.09375 L 4.03125 -1.09375 L 4.03125 0 L 0.609375 0 L 0.609375 -5.6875 L 4.03125 -5.6875 Z M 4.03125 -4.59375 "/></g></g></g><g fill="#000000" fill-opacity="1"><g transform="translate(109.232356, 33.551105)"><g><path d="M 2.3125 0.078125 C 1.8125 0.078125 1.367188 -0.046875 0.984375 -0.296875 C 0.609375 -0.546875 0.332031 -0.847656 0.15625 -1.203125 L 1.1875 -1.84375 C 1.289062 -1.625 1.441406 -1.441406 1.640625 -1.296875 C 1.835938 -1.160156 2.066406 -1.09375 2.328125 -1.09375 C 2.546875 -1.09375 2.71875 -1.140625 2.84375 -1.234375 C 2.96875 -1.335938 3.03125 -1.46875 3.03125 -1.625 C 3.03125 -1.789062 2.960938 -1.921875 2.828125 -2.015625 C 2.703125 -2.117188 2.539062 -2.203125 2.34375 -2.265625 C 2.144531 -2.335938 1.929688 -2.414062 1.703125 -2.5 C 1.484375 -2.582031 1.273438 -2.6875 1.078125 -2.8125 C 0.878906 -2.9375 0.71875 -3.097656 0.59375 -3.296875 C 0.46875 -3.503906 0.40625 -3.769531 0.40625 -4.09375 C 0.40625 -4.46875 0.492188 -4.78125 0.671875 -5.03125 C 0.847656 -5.28125 1.078125 -5.460938 1.359375 -5.578125 C 1.640625 -5.703125 1.925781 -5.765625 2.21875 -5.765625 C 2.570312 -5.765625 2.898438 -5.691406 3.203125 -5.546875 C 3.503906 -5.398438 3.765625 -5.207031 3.984375 -4.96875 L 3.140625 -4.171875 C 3.003906 -4.328125 2.851562 -4.445312 2.6875 -4.53125 C 2.53125 -4.613281 2.375 -4.65625 2.21875 -4.65625 C 2.0625 -4.65625 1.925781 -4.617188 1.8125 -4.546875 C 1.707031 -4.472656 1.65625 -4.351562 1.65625 -4.1875 C 1.65625 -4.019531 1.71875 -3.890625 1.84375 -3.796875 C 1.976562 -3.703125 2.144531 -3.617188 2.34375 -3.546875 C 2.539062 -3.484375 2.75 -3.410156 2.96875 -3.328125 C 3.1875 -3.242188 3.394531 -3.132812 3.59375 -3 C 3.800781 -2.863281 3.96875 -2.6875 4.09375 -2.46875 C 4.21875 -2.25 4.28125 -1.960938 4.28125 -1.609375 C 4.28125 -1.253906 4.1875 -0.953125 4 -0.703125 C 3.820312 -0.453125 3.582031 -0.257812 3.28125 -0.125 C 2.988281 0.0078125 2.664062 0.078125 2.3125 0.078125 Z M 2.3125 0.078125 "/></g></g></g><g fill="#000000" fill-opacity="1"><g transform="translate(114.757488, 33.551105)"><g><path d="M 4.078125 -5.6875 L 4.078125 -4.578125 L 2.640625 -4.578125 L 2.640625 0 L 1.390625 0 L 1.390625 -4.578125 L -0.046875 -4.578125 L -0.046875 -5.6875 Z M 4.078125 -5.6875 "/></g></g></g><g fill="#000000" fill-opacity="1"><g transform="translate(119.807971, 33.551105)"><g><path d="M 4.03125 -4.59375 L 1.859375 -4.59375 L 1.859375 -3.390625 L 3.71875 -3.390625 L 3.71875 -2.296875 L 1.859375 -2.296875 L 1.859375 -1.09375 L 4.03125 -1.09375 L 4.03125 0 L 0.609375 0 L 0.609375 -5.6875 L 4.03125 -5.6875 Z M 4.03125 -4.59375 "/></g></g></g><g fill="#000000" fill-opacity="1"><g transform="translate(98.732684, 41.496864)"><g><path d="M 3.28125 -3.125 L 6.203125 -3.125 L 6.203125 -2.84375 C 6.203125 -2.4375 6.125 -2.054688 5.96875 -1.703125 C 5.820312 -1.359375 5.613281 -1.050781 5.34375 -0.78125 C 5.082031 -0.507812 4.773438 -0.296875 4.421875 -0.140625 C 4.066406 0.00390625 3.6875 0.078125 3.28125 0.078125 C 2.875 0.078125 2.492188 0.00390625 2.140625 -0.140625 C 1.785156 -0.296875 1.472656 -0.507812 1.203125 -0.78125 C 0.941406 -1.050781 0.734375 -1.359375 0.578125 -1.703125 C 0.429688 -2.054688 0.359375 -2.4375 0.359375 -2.84375 C 0.359375 -3.25 0.429688 -3.628906 0.578125 -3.984375 C 0.734375 -4.335938 0.941406 -4.644531 1.203125 -4.90625 C 1.472656 -5.175781 1.785156 -5.382812 2.140625 -5.53125 C 2.492188 -5.6875 2.875 -5.765625 3.28125 -5.765625 C 3.84375 -5.765625 4.351562 -5.617188 4.8125 -5.328125 C 5.269531 -5.046875 5.625 -4.671875 5.875 -4.203125 L 4.796875 -3.640625 C 4.648438 -3.910156 4.441406 -4.128906 4.171875 -4.296875 C 3.910156 -4.460938 3.613281 -4.546875 3.28125 -4.546875 C 2.96875 -4.546875 2.679688 -4.46875 2.421875 -4.3125 C 2.160156 -4.164062 1.953125 -3.960938 1.796875 -3.703125 C 1.648438 -3.453125 1.578125 -3.164062 1.578125 -2.84375 C 1.578125 -2.519531 1.648438 -2.226562 1.796875 -1.96875 C 1.953125 -1.71875 2.160156 -1.519531 2.421875 -1.375 C 2.679688 -1.226562 2.96875 -1.15625 3.28125 -1.15625 C 3.632812 -1.15625 3.945312 -1.242188 4.21875 -1.421875 C 4.5 -1.609375 4.707031 -1.847656 4.84375 -2.140625 L 3.28125 -2.140625 Z M 3.28125 -3.125 "/></g></g></g><g fill="#000000" fill-opacity="1"><g transform="translate(106.327289, 41.496864)"><g><path d="M 4.046875 0 L 3.6875 -1.078125 L 1.5625 -1.078125 L 1.21875 0 L -0.125 0 L 1.921875 -5.6875 L 3.328125 -5.6875 L 5.375 0 Z M 1.890625 -2.109375 L 3.359375 -2.109375 L 2.625 -4.375 Z M 1.890625 -2.109375 "/></g></g></g><g fill="#000000" fill-opacity="1"><g transform="translate(112.61186, 41.496864)"><g><path d="M 3.53125 -2.34375 L 5.125 0 L 3.71875 0 L 2.3125 -2.203125 L 1.8125 -2.203125 L 1.8125 0 L 0.5625 0 L 0.5625 -5.6875 L 2.984375 -5.6875 C 3.304688 -5.6875 3.59375 -5.609375 3.84375 -5.453125 C 4.101562 -5.304688 4.304688 -5.097656 4.453125 -4.828125 C 4.597656 -4.566406 4.671875 -4.273438 4.671875 -3.953125 C 4.671875 -3.566406 4.5625 -3.226562 4.34375 -2.9375 C 4.132812 -2.644531 3.863281 -2.445312 3.53125 -2.34375 Z M 2.796875 -3.234375 C 2.992188 -3.234375 3.15625 -3.296875 3.28125 -3.421875 C 3.414062 -3.546875 3.484375 -3.707031 3.484375 -3.90625 C 3.484375 -4.101562 3.414062 -4.265625 3.28125 -4.390625 C 3.15625 -4.515625 2.992188 -4.578125 2.796875 -4.578125 L 1.8125 -4.578125 L 1.8125 -3.234375 Z M 2.796875 -3.234375 "/></g></g></g><g fill="#000000" fill-opacity="1"><g transform="translate(118.716064, 41.496864)"><g><path d="M 3.28125 -1.15625 C 3.613281 -1.15625 3.910156 -1.234375 4.171875 -1.390625 C 4.441406 -1.554688 4.644531 -1.773438 4.78125 -2.046875 L 5.859375 -1.484375 C 5.640625 -1.054688 5.320312 -0.703125 4.90625 -0.421875 C 4.5 -0.140625 4.035156 0.0195312 3.515625 0.0625 L 3.296875 0.4375 C 3.535156 0.394531 3.738281 0.441406 3.90625 0.578125 C 4.082031 0.710938 4.171875 0.894531 4.171875 1.125 C 4.171875 1.363281 4.085938 1.5625 3.921875 1.71875 C 3.765625 1.882812 3.566406 1.96875 3.328125 1.96875 C 3.128906 1.96875 2.945312 1.910156 2.78125 1.796875 C 2.613281 1.679688 2.5 1.546875 2.4375 1.390625 L 2.96875 1.21875 C 3 1.269531 3.050781 1.316406 3.125 1.359375 C 3.195312 1.398438 3.265625 1.421875 3.328125 1.421875 C 3.410156 1.421875 3.476562 1.390625 3.53125 1.328125 C 3.59375 1.273438 3.625 1.207031 3.625 1.125 C 3.625 1 3.566406 0.914062 3.453125 0.875 C 3.335938 0.832031 3.195312 0.859375 3.03125 0.953125 L 2.609375 0.703125 L 2.96875 0.0625 C 2.476562 0.0078125 2.035156 -0.148438 1.640625 -0.421875 C 1.242188 -0.691406 0.925781 -1.035156 0.6875 -1.453125 C 0.457031 -1.878906 0.34375 -2.34375 0.34375 -2.84375 C 0.34375 -3.25 0.421875 -3.628906 0.578125 -3.984375 C 0.734375 -4.335938 0.941406 -4.644531 1.203125 -4.90625 C 1.472656 -5.175781 1.785156 -5.382812 2.140625 -5.53125 C 2.492188 -5.6875 2.875 -5.765625 3.28125 -5.765625 C 3.84375 -5.765625 4.351562 -5.617188 4.8125 -5.328125 C 5.269531 -5.046875 5.617188 -4.671875 5.859375 -4.203125 L 4.78125 -3.640625 C 4.644531 -3.910156 4.441406 -4.128906 4.171875 -4.296875 C 3.910156 -4.460938 3.613281 -4.546875 3.28125 -4.546875 C 2.957031 -4.546875 2.664062 -4.46875 2.40625 -4.3125 C 2.15625 -4.164062 1.953125 -3.960938 1.796875 -3.703125 C 1.648438 -3.453125 1.578125 -3.164062 1.578125 -2.84375 C 1.578125 -2.519531 1.648438 -2.226562 1.796875 -1.96875 C 1.953125 -1.71875 2.15625 -1.519531 2.40625 -1.375 C 2.664062 -1.226562 2.957031 -1.15625 3.28125 -1.15625 Z M 3.28125 -1.15625 "/></g></g></g><g fill="#000000" fill-opacity="1"><g transform="translate(125.855006, 41.496864)"><g><path d="M 3.28125 0.078125 C 2.875 0.078125 2.492188 0.00390625 2.140625 -0.140625 C 1.785156 -0.296875 1.472656 -0.507812 1.203125 -0.78125 C 0.941406 -1.050781 0.734375 -1.359375 0.578125 -1.703125 C 0.421875 -2.054688 0.34375 -2.4375 0.34375 -2.84375 C 0.34375 -3.25 0.421875 -3.628906 0.578125 -3.984375 C 0.734375 -4.335938 0.941406 -4.644531 1.203125 -4.90625 C 1.472656 -5.175781 1.785156 -5.382812 2.140625 -5.53125 C 2.492188 -5.6875 2.875 -5.765625 3.28125 -5.765625 C 3.675781 -5.765625 4.050781 -5.6875 4.40625 -5.53125 C 4.769531 -5.382812 5.082031 -5.175781 5.34375 -4.90625 C 5.613281 -4.644531 5.820312 -4.335938 5.96875 -3.984375 C 6.125 -3.628906 6.203125 -3.25 6.203125 -2.84375 C 6.203125 -2.4375 6.125 -2.054688 5.96875 -1.703125 C 5.820312 -1.359375 5.613281 -1.050781 5.34375 -0.78125 C 5.082031 -0.507812 4.769531 -0.296875 4.40625 -0.140625 C 4.050781 0.00390625 3.675781 0.078125 3.28125 0.078125 Z M 3.28125 -1.15625 C 3.601562 -1.15625 3.890625 -1.226562 4.140625 -1.375 C 4.398438 -1.519531 4.601562 -1.71875 4.75 -1.96875 C 4.894531 -2.226562 4.96875 -2.519531 4.96875 -2.84375 C 4.96875 -3.164062 4.894531 -3.453125 4.75 -3.703125 C 4.601562 -3.960938 4.398438 -4.164062 4.140625 -4.3125 C 3.890625 -4.46875 3.601562 -4.546875 3.28125 -4.546875 C 2.957031 -4.546875 2.664062 -4.46875 2.40625 -4.3125 C 2.15625 -4.164062 1.953125 -3.960938 1.796875 -3.703125 C 1.648438 -3.453125 1.578125 -3.164062 1.578125 -2.84375 C 1.578125 -2.519531 1.648438 -2.226562 1.796875 -1.96875 C 1.953125 -1.71875 2.15625 -1.519531 2.40625 -1.375 C 2.664062 -1.226562 2.957031 -1.15625 3.28125 -1.15625 Z M 3.28125 -1.15625 "/></g></g></g><g fill="#000000" fill-opacity="1"><g transform="translate(133.440117, 41.496864)"><g><path d="M 5.53125 -5.6875 L 6.875 -5.6875 L 6.875 0 L 5.625 0 L 5.625 -3.390625 L 4.078125 0 L 3.34375 0 L 1.8125 -3.390625 L 1.8125 0 L 0.5625 0 L 0.5625 -5.6875 L 1.921875 -5.6875 L 3.71875 -1.75 Z M 5.53125 -5.6875 "/></g></g></g><g fill="#000000" fill-opacity="1"><g transform="translate(98.732684, 46.95195)"><g><path d="M 1.953125 -2.703125 L 2.265625 -2.703125 L 1.296875 0 L 0.96875 0 L 0 -2.703125 L 0.3125 -2.703125 L 1.140625 -0.375 Z M 1.953125 -2.703125 "/></g></g></g><g fill="#000000" fill-opacity="1"><g transform="translate(102.360444, 46.95195)"><g><path d="M 0.34375 0 L 0.34375 -2.703125 L 0.640625 -2.703125 L 0.640625 0 Z M 0.34375 0 "/></g></g></g><g fill="#000000" fill-opacity="1"><g transform="translate(104.701893, 46.95195)"><g><path d="M 1.421875 -1.234375 L 2.21875 0 L 1.890625 0 L 1.125 -1.21875 L 0.609375 -1.21875 L 0.609375 0 L 0.328125 0 L 0.328125 -2.703125 L 1.296875 -2.703125 C 1.429688 -2.703125 1.554688 -2.664062 1.671875 -2.59375 C 1.785156 -2.53125 1.875 -2.441406 1.9375 -2.328125 C 2.007812 -2.210938 2.046875 -2.082031 2.046875 -1.9375 C 2.046875 -1.820312 2.015625 -1.710938 1.953125 -1.609375 C 1.898438 -1.503906 1.828125 -1.421875 1.734375 -1.359375 C 1.640625 -1.296875 1.535156 -1.253906 1.421875 -1.234375 Z M 0.609375 -1.484375 L 1.28125 -1.484375 C 1.414062 -1.484375 1.523438 -1.523438 1.609375 -1.609375 C 1.703125 -1.703125 1.75 -1.816406 1.75 -1.953125 C 1.75 -2.085938 1.703125 -2.195312 1.609375 -2.28125 C 1.523438 -2.363281 1.414062 -2.40625 1.28125 -2.40625 L 0.609375 -2.40625 Z M 0.609375 -1.484375 "/></g></g></g><g fill="#000000" fill-opacity="1"><g transform="translate(108.316162, 46.95195)"><g><path d="M 1.8125 -2.703125 L 1.8125 -2.40625 L 1.078125 -2.40625 L 1.078125 0 L 0.78125 0 L 0.78125 -2.40625 L 0.046875 -2.40625 L 0.046875 -2.703125 Z M 1.8125 -2.703125 "/></g></g></g><g fill="#000000" fill-opacity="1"><g transform="translate(111.534642, 46.95195)"><g><path d="M 1.328125 0.03125 C 1.128906 0.03125 0.953125 -0.00390625 0.796875 -0.078125 C 0.648438 -0.160156 0.53125 -0.269531 0.4375 -0.40625 C 0.351562 -0.550781 0.3125 -0.710938 0.3125 -0.890625 L 0.3125 -2.703125 L 0.609375 -2.703125 L 0.609375 -0.9375 C 0.609375 -0.800781 0.640625 -0.679688 0.703125 -0.578125 C 0.765625 -0.472656 0.847656 -0.390625 0.953125 -0.328125 C 1.066406 -0.273438 1.191406 -0.25 1.328125 -0.25 C 1.460938 -0.25 1.582031 -0.273438 1.6875 -0.328125 C 1.800781 -0.390625 1.890625 -0.472656 1.953125 -0.578125 C 2.015625 -0.679688 2.046875 -0.800781 2.046875 -0.9375 L 2.046875 -2.703125 L 2.34375 -2.703125 L 2.34375 -0.890625 C 2.34375 -0.710938 2.296875 -0.550781 2.203125 -0.40625 C 2.117188 -0.269531 2 -0.160156 1.84375 -0.078125 C 1.695312 -0.00390625 1.523438 0.03125 1.328125 0.03125 Z M 1.328125 0.03125 "/></g></g></g><g fill="#000000" fill-opacity="1"><g transform="translate(115.549197, 46.95195)"><g><path d="M 1.953125 0 L 1.734375 -0.625 L 0.53125 -0.625 L 0.3125 0 L 0 0 L 0.96875 -2.703125 L 1.296875 -2.703125 L 2.265625 0 Z M 0.625 -0.90625 L 1.640625 -0.90625 L 1.140625 -2.359375 Z M 0.625 -0.90625 "/></g></g></g><g fill="#000000" fill-opacity="1"><g transform="translate(119.176958, 46.95195)"><g><path d="M 0.609375 -0.28125 L 1.625 -0.28125 L 1.625 0 L 0.328125 0 L 0.328125 -2.703125 L 0.609375 -2.703125 Z M 0.609375 -0.28125 "/></g></g></g></svg>